<?xml version="1.0" standalone="no"?>
<!DOCTYPE svg PUBLIC "-//W3C//DTD SVG 20010904//EN"
 "http://www.w3.org/TR/2001/REC-SVG-20010904/DTD/svg10.dtd">
<svg version="1.0" xmlns="http://www.w3.org/2000/svg"
 width="512.000000pt" height="512.000000pt" viewBox="0 0 512.000000 512.000000"
 preserveAspectRatio="xMidYMid meet">
<metadata>
Created by potrace 1.14, written by Peter Selinger 2001-2017
</metadata>
<g transform="translate(0.000000,512.000000) scale(0.100000,-0.100000)"
fill="#000000" stroke="none">
<path d="M1205 4849 c-256 -24 -472 -124 -646 -298 -38 -39 -126 -152 -147
-190 -8 -13 -22 -38 -31 -55 -27 -48 -69 -156 -81 -211 -18 -78 -19 -86 -26
-150 -9 -77 -9 -2738 0 -2787 3 -21 9 -55 12 -75 10 -62 62 -208 98 -274 156
-287 413 -471 741 -530 54 -9 379 -12 1430 -12 748 0 1383 3 1410 7 227 32
427 129 583 285 152 151 241 318 287 536 16 73 17 201 17 1450 0 754 -2 1388
-5 1410 -8 59 -34 176 -47 210 -90 249 -261 448 -491 573 -55 29 -189 79 -239
89 -14 3 -32 6 -40 8 -8 2 -40 6 -70 11 -67 9 -2657 12 -2755 3z m1428 -655
c18 -9 44 -32 57 -52 l25 -36 3 -1534 c2 -1520 2 -1536 -18 -1577 -31 -63
-109 -98 -183 -82 -32 6 -88 58 -103 93 -21 50 -21 3058 0 3108 15 36 50 73
81 86 33 14 102 11 138 -6z m1295 -541 c14 -10 35 -32 46 -47 21 -27 21 -35
24 -1032 3 -1112 6 -1047 -63 -1100 -32 -24 -48 -29 -96 -29 -63 0 -94 17
-133 69 -21 27 -21 36 -24 1009 -2 540 0 1001 3 1024 7 49 45 99 90 119 40 19
120 12 153 -13z m-1927 -105 c25 -14 46 -37 59 -63 20 -41 20 -60 20 -932 l0
-890 -27 -40 c-66 -102 -221 -95 -273 12 -20 41 -20 60 -20 932 l0 890 27 40
c47 73 138 94 214 51z m1272 -314 c18 -9 44 -32 57 -52 l25 -36 2 -579 c3
-573 3 -580 -18 -617 -57 -100 -205 -107 -269 -12 l-25 36 -2 579 c-3 572 -3
580 18 617 40 71 136 100 212 64z m-1904 -116 c19 -12 41 -39 52 -62 17 -38
19 -74 19 -499 0 -499 1 -493 -58 -545 -75 -66 -201 -40 -243 52 -17 38 -19
74 -19 499 0 433 1 460 19 496 24 45 39 59 88 77 45 16 96 10 142 -18z"/>
</g>
</svg>
