<svg width="24" height="24" viewBox="0 0 24 24" fill="none" xmlns="http://www.w3.org/2000/svg">
<path fill-rule="evenodd" clip-rule="evenodd" d="M0 -61C0 -66.5228 4.47715 -71 10 -71H1913C1918.52 -71 1923 -66.5228 1923 -61V23.99C1923 23.9955 1923 24 1922.99 24V24C1922.98 24 1922.98 23.9957 1922.98 23.9903C1922.45 10.6513 1911.47 0 1898 0H1639.06C1634 0 1629.84 -3.8327 1628.36 -8.67391C1622.09 -29.1277 1603.05 -44 1580.54 -44H551.783C529.275 -44 510.24 -29.1277 503.971 -8.6739C502.487 -3.8327 498.327 0 493.264 0H25C11.531 0 0.549843 10.6513 0.0200166 23.9903C0.0198033 23.9957 0.0153857 24 0.0100103 24V24C0.00448175 24 0 23.9955 0 23.99V-61Z" fill="#7027E2"/>
</svg>
