<svg width="62" height="71" viewBox="0 0 62 71" fill="none" xmlns="http://www.w3.org/2000/svg">
<path fill-rule="evenodd" clip-rule="evenodd" d="M-492 10C-492 4.47715 -487.523 0 -482 0H1418C1423.52 0 1428 4.47715 1428 10V94.99C1428 94.9955 1428 95 1427.99 95V95C1427.98 95 1427.98 94.9957 1427.98 94.9903C1427.45 81.6513 1416.47 71 1403 71H1144.52C1139.46 71 1135.3 67.1673 1133.81 62.3261C1127.54 41.8723 1108.51 27 1086 27H59C36.492 27 17.4576 41.8723 11.1878 62.3261C9.70382 67.1673 5.54451 71 0.480967 71H-467C-480.469 71 -491.45 81.6513 -491.98 94.9903C-491.98 94.9957 -491.985 95 -491.99 95V95C-491.996 95 -492 94.9955 -492 94.99V10Z" fill="#7027E2"/>
</svg>
